<svg version="1.2" baseProfile="tiny-ps" xmlns="http://www.w3.org/2000/svg" viewBox="0 0 498 499" width="498" height="499">
	<title>Triple-C-svg</title>
	<defs>
		<clipPath clipPathUnits="userSpaceOnUse" id="cp1">
			<path d="m-1 0h499v499h-499v-499z" />
		</clipPath>
	</defs>
	<style>
		tspan { white-space:pre }
		.s0 { fill: #f8a12c } 
		.s1 { fill: #00b9b4 } 
		.s2 { fill: #fe4812 } 
	</style>
	<g id="Clip-Path: Triple_C" clip-path="url(#cp1)">
		<g id="Triple_C">
			<g id="Group_34">
				<path id="Path_1" class="s0" d="m74.39 164.5c0-9.81-1.92-19.52-5.65-28.59c-3.73-9.07-9.19-17.33-16.09-24.3c-6.9-6.97-15.09-12.53-24.12-16.36c-9.03-3.83-18.72-5.86-28.53-5.97l0-88.85c43.45 0.11 85.08 17.44 115.76 48.2c30.68 30.76 47.92 72.43 47.92 115.88c0 43.45-17.23 85.12-47.92 115.88c-30.68 30.76-72.31 48.09-115.76 48.2l0-88.85c9.81-0.11 19.5-2.14 28.53-5.97c9.03-3.83 17.22-9.39 24.12-16.36c6.9-6.97 12.36-15.23 16.09-24.3c3.73-9.07 5.65-18.79 5.65-28.59" />
				<path id="Path_2" class="s1" d="m423.86 334.55c0 9.81 1.92 19.52 5.65 28.59c3.73 9.07 9.19 17.33 16.09 24.3c6.9 6.97 15.09 12.53 24.12 16.36c9.03 3.83 18.72 5.86 28.53 5.97l0 88.85c-43.45-0.11-85.08-17.44-115.76-48.2c-30.68-30.76-47.92-72.43-47.92-115.88c0-43.45 17.23-85.12 47.92-115.88c30.68-30.76 72.31-48.09 115.76-48.2l0 88.85c-9.81 0.11-19.5 2.14-28.53 5.97c-9.03 3.83-17.22 9.39-24.12 16.36c-6.9 6.97-12.36 15.23-16.09 24.3c-3.73 9.07-5.65 18.78-5.65 28.59" />
				<path id="Path_3" class="s2" d="m334.91 74.39c9.81 0 19.52-1.92 28.59-5.65c9.07-3.73 17.33-9.19 24.3-16.09c6.97-6.9 12.53-15.09 16.36-24.12c3.83-9.03 5.86-18.72 5.97-28.53l88.85 0c0 21.55-4.25 42.88-12.49 62.79c-8.25 19.91-20.33 38-35.57 53.23c-15.24 15.24-33.32 27.32-53.23 35.57c-19.91 8.25-41.24 12.49-62.79 12.49c-21.55 0-42.88-4.25-62.79-12.49c-19.91-8.25-37.99-20.33-53.23-35.57c-15.24-15.24-27.32-33.32-35.57-53.23c-8.25-19.91-12.49-41.24-12.49-62.79l88.85 0c0.11 9.81 2.14 19.5 5.97 28.53c3.83 9.03 9.39 17.22 16.36 24.12c6.97 6.9 15.23 12.36 24.3 16.09c9.07 3.73 18.78 5.65 28.59 5.65" />
			</g>
		</g>
	</g>
</svg>